<svg width="88" height="88" viewBox="0 0 88 88" fill="none" xmlns="http://www.w3.org/2000/svg">
<path d="M78.5714 62.8571V50.2857C78.5714 45.2088 74.4615 40.8571 69.1429 40.8571H47.1428V28.2857H53.4286C58.5055 28.2857 62.8571 24.1758 62.8571 18.8571V9.42857C62.8571 4.35164 58.7472 0 53.4286 0H34.5714C29.4945 0 25.1429 4.10988 25.1429 9.42857V18.8571C25.1429 23.9341 29.2527 28.2857 34.5714 28.2857H40.8571V40.8571H18.8571C13.7802 40.8571 9.42857 44.967 9.42857 50.2857V62.8571C4.35165 62.8571 0 66.967 0 72.2857V78.5714C0 83.6483 4.10989 88 9.42857 88H15.7143C20.7912 88 25.1429 83.8901 25.1429 78.5714V72.2857C25.1429 67.2088 21.033 62.8571 15.7143 62.8571V50.2857C15.7143 48.5934 17.1648 47.1429 18.8571 47.1429H40.8571V62.8571C35.7802 62.8571 31.4286 66.967 31.4286 72.2857V78.5714C31.4286 83.6483 35.5385 88 40.8571 88H47.1428C52.2198 88 56.5714 83.8901 56.5714 78.5714V72.2857C56.5714 67.2088 52.4615 62.8571 47.1428 62.8571V47.1429H69.1429C70.8352 47.1429 72.2857 48.5934 72.2857 50.2857V62.8571C67.2088 62.8571 62.8571 66.967 62.8571 72.2857V78.5714C62.8571 83.6483 66.967 88 72.2857 88H78.5714C83.6483 88 88 83.8901 88 78.5714V72.2857C88 67.2088 83.8901 62.8571 78.5714 62.8571ZM31.6703 19.0989V9.67033C31.6703 7.97802 33.1209 6.52746 34.8132 6.52746H53.6703C55.3626 6.52746 56.8132 7.97802 56.8132 9.67033V19.0989C56.8132 20.7912 55.3626 22.2417 53.6703 22.2417H34.8132C33.1209 22.2417 31.6703 20.7912 31.6703 19.0989ZM19.3407 72.2857V78.5714C19.3407 80.2637 17.8901 81.7143 16.1978 81.7143H9.91209C8.21978 81.7143 6.76923 80.2637 6.76923 78.5714V72.2857C6.76923 70.5934 8.21978 69.1428 9.91209 69.1428H16.1978C17.8901 69.1428 19.3407 70.5934 19.3407 72.2857ZM50.5275 72.2857V78.5714C50.5275 80.2637 49.0769 81.7143 47.3846 81.7143H41.0989C39.4066 81.7143 37.956 80.2637 37.956 78.5714V72.2857C37.956 70.5934 39.4066 69.1428 41.0989 69.1428H47.3846C49.0769 69.1428 50.5275 70.5934 50.5275 72.2857ZM81.7143 78.5714C81.7143 80.2637 80.2637 81.7143 78.5714 81.7143H72.2857C70.5934 81.7143 69.1429 80.2637 69.1429 78.5714V72.2857C69.1429 70.5934 70.5934 69.1428 72.2857 69.1428H78.5714C80.2637 69.1428 81.7143 70.5934 81.7143 72.2857V78.5714Z" fill="white"/>
</svg>
